<svg width="20" height="20" viewBox="0 0 20 20" fill="none" xmlns="http://www.w3.org/2000/svg">
<g clip-path="url(#clip0_13_315)">
<path d="M19.9597 9.81037C19.9597 9.02376 19.8919 8.44974 19.7451 7.85446H10.1986V11.4048H15.8022C15.6892 12.2872 15.0792 13.6159 13.7234 14.5088L13.7044 14.6277L16.7228 16.8278L16.932 16.8475C18.8525 15.1785 19.9597 12.723 19.9597 9.81037Z" fill="#4285F4"/>
<path d="M10.1986 19.1648C12.9439 19.1648 15.2486 18.3144 16.9319 16.8475L13.7234 14.5088C12.8648 15.0722 11.7124 15.4655 10.1986 15.4655C7.50978 15.4655 5.22768 13.7966 4.41418 11.4899L4.29494 11.4995L1.15634 13.7849L1.1153 13.8923C2.78732 17.0175 6.2218 19.1648 10.1986 19.1648Z" fill="#34A853"/>
<path d="M4.41419 11.4899C4.19954 10.8947 4.07531 10.2568 4.07531 9.59779C4.07531 8.93869 4.19954 8.30091 4.40289 7.70564L4.39721 7.57886L1.21928 5.25668L1.11531 5.30322C0.426182 6.6001 0.0307617 8.05644 0.0307617 9.59779C0.0307617 11.1391 0.426182 12.5954 1.11531 13.8923L4.41419 11.4899Z" fill="#FBBC05"/>
<path d="M10.1986 3.72999C12.1079 3.72999 13.3958 4.50597 14.1301 5.15445L16.9997 2.51819C15.2373 0.976838 12.9439 0.0307617 10.1986 0.0307617C6.2218 0.0307617 2.78732 2.17801 1.1153 5.30321L4.40288 7.70563C5.22768 5.39892 7.50978 3.72999 10.1986 3.72999Z" fill="#EB4335"/>
</g>
<defs>
<clipPath id="clip0_13_315">
<rect width="19.9385" height="19.2" fill="white" transform="translate(0.0307617 0.0307617)"/>
</clipPath>
</defs>
</svg>
