<svg width="92" height="92" viewBox="0 0 92 92" fill="none" xmlns="http://www.w3.org/2000/svg">
<path d="M37.4436 45.7812C37.4436 41.1791 41.1757 37.4472 45.7806 37.4472C50.3856 37.4472 54.1196 41.1791 54.1196 45.7812C54.1196 50.3834 50.3856 54.1152 45.7806 54.1152C41.1757 54.1152 37.4436 50.3834 37.4436 45.7812ZM32.9357 45.7812C32.9357 52.8713 38.6864 58.6185 45.7806 58.6185C52.8749 58.6185 58.6255 52.8713 58.6255 45.7812C58.6255 38.6912 52.8749 32.944 45.7806 32.944C38.6864 32.944 32.9357 38.6912 32.9357 45.7812ZM56.1322 32.4351C56.132 33.0284 56.3078 33.6085 56.6375 34.102C56.9671 34.5954 57.4358 34.9801 57.9842 35.2074C58.5326 35.4347 59.1361 35.4944 59.7185 35.3788C60.3008 35.2633 60.8358 34.9778 61.2558 34.5584C61.6758 34.139 61.9619 33.6046 62.0779 33.0227C62.194 32.4408 62.1348 31.8376 61.9078 31.2893C61.6808 30.741 61.2963 30.2723 60.8027 29.9425C60.3092 29.6127 59.7289 29.4365 59.1352 29.4362H59.134C58.3382 29.4366 57.5751 29.7526 57.0123 30.3149C56.4494 30.8772 56.1329 31.6397 56.1322 32.4351ZM35.6746 66.1306C33.2357 66.0196 31.9101 65.6136 31.0292 65.2706C29.8613 64.8162 29.028 64.275 28.1519 63.4007C27.2757 62.5262 26.7334 61.6942 26.2807 60.5271C25.9373 59.647 25.5311 58.3218 25.4202 55.8844C25.2989 53.2492 25.2747 52.4576 25.2747 45.7815C25.2747 39.1052 25.3009 38.3158 25.4202 35.6784C25.5313 33.241 25.9405 31.9184 26.2807 31.0358C26.7354 29.8686 27.2769 29.0358 28.1519 28.1603C29.0268 27.2847 29.8593 26.7427 31.0292 26.2903C31.9097 25.9471 33.2357 25.541 35.6746 25.4302C38.3113 25.309 39.1034 25.2848 45.7806 25.2848C52.4578 25.2848 53.2507 25.311 55.8897 25.4302C58.3286 25.5412 59.6519 25.9503 60.5351 26.2903C61.703 26.7427 62.5363 27.2859 63.4124 28.1603C64.2885 29.0346 64.8288 29.8686 65.2835 31.0358C65.6269 31.9158 66.0332 33.241 66.144 35.6784C66.2653 38.3158 66.2895 39.1052 66.2895 45.7815C66.2895 52.4576 66.2653 53.2471 66.144 55.8844C66.033 58.3218 65.6247 59.6466 65.2835 60.5271C64.8288 61.6942 64.2873 62.5271 63.4124 63.4007C62.5375 64.2743 61.703 64.8162 60.5351 65.2706C59.6545 65.6138 58.3286 66.0198 55.8897 66.1306C53.2529 66.2519 52.4608 66.2761 45.7806 66.2761C39.1004 66.2761 38.3105 66.2519 35.6746 66.1306ZM35.4674 20.9326C32.8044 21.0538 30.9848 21.4758 29.3956 22.0938C27.7498 22.732 26.3566 23.5882 24.9643 24.9774C23.5721 26.3666 22.7176 27.7612 22.079 29.406C21.4606 30.9952 21.0384 32.8128 20.9171 35.4742C20.7938 38.1399 20.7656 38.9921 20.7656 45.7812C20.7656 52.5704 20.7938 53.4226 20.9171 56.0882C21.0384 58.7498 21.4606 60.5672 22.079 62.1564C22.7176 63.8003 23.5723 65.1964 24.9643 66.585C26.3564 67.9736 27.7498 68.8287 29.3956 69.4687C30.9878 70.0867 32.8044 70.5086 35.4674 70.6298C38.136 70.751 38.9874 70.7812 45.7806 70.7812C52.5739 70.7812 53.4266 70.753 56.0938 70.6298C58.757 70.5086 60.5755 70.0867 62.1657 69.4687C63.8104 68.8287 65.2047 67.9742 66.5969 66.585C67.9891 65.1958 68.8419 63.8003 69.4822 62.1564C70.1006 60.5672 70.5249 58.7496 70.6441 56.0882C70.7654 53.4207 70.7936 52.5704 70.7936 45.7812C70.7936 38.9921 70.7654 38.1399 70.6441 35.4742C70.5229 32.8126 70.1006 30.9942 69.4822 29.406C68.8419 27.7622 67.9869 26.3688 66.5969 24.9774C65.2069 23.586 63.8104 22.732 62.1677 22.0938C60.5755 21.4758 58.7568 21.0518 56.0958 20.9326C53.4286 20.8115 52.5759 20.7812 45.7826 20.7812C38.9894 20.7812 38.136 20.8095 35.4674 20.9326Z" fill="url(#paint0_radial_1727_5879)"/>
<path d="M37.4436 45.7812C37.4436 41.1791 41.1757 37.4472 45.7806 37.4472C50.3856 37.4472 54.1196 41.1791 54.1196 45.7812C54.1196 50.3834 50.3856 54.1152 45.7806 54.1152C41.1757 54.1152 37.4436 50.3834 37.4436 45.7812ZM32.9357 45.7812C32.9357 52.8713 38.6864 58.6185 45.7806 58.6185C52.8749 58.6185 58.6255 52.8713 58.6255 45.7812C58.6255 38.6912 52.8749 32.944 45.7806 32.944C38.6864 32.944 32.9357 38.6912 32.9357 45.7812ZM56.1322 32.4351C56.132 33.0284 56.3078 33.6085 56.6375 34.102C56.9671 34.5954 57.4358 34.9801 57.9842 35.2074C58.5326 35.4347 59.1361 35.4944 59.7185 35.3788C60.3008 35.2633 60.8358 34.9778 61.2558 34.5584C61.6758 34.139 61.9619 33.6046 62.0779 33.0227C62.194 32.4408 62.1348 31.8376 61.9078 31.2893C61.6808 30.741 61.2963 30.2723 60.8027 29.9425C60.3092 29.6127 59.7289 29.4365 59.1352 29.4362H59.134C58.3382 29.4366 57.5751 29.7526 57.0123 30.3149C56.4494 30.8772 56.1329 31.6397 56.1322 32.4351ZM35.6746 66.1306C33.2357 66.0196 31.9101 65.6136 31.0292 65.2706C29.8613 64.8162 29.028 64.275 28.1519 63.4007C27.2757 62.5262 26.7334 61.6942 26.2807 60.5271C25.9373 59.647 25.5311 58.3218 25.4202 55.8844C25.2989 53.2492 25.2747 52.4576 25.2747 45.7815C25.2747 39.1052 25.3009 38.3158 25.4202 35.6784C25.5313 33.241 25.9405 31.9184 26.2807 31.0358C26.7354 29.8686 27.2769 29.0358 28.1519 28.1603C29.0268 27.2847 29.8593 26.7427 31.0292 26.2903C31.9097 25.9471 33.2357 25.541 35.6746 25.4302C38.3113 25.309 39.1034 25.2848 45.7806 25.2848C52.4578 25.2848 53.2507 25.311 55.8897 25.4302C58.3286 25.5412 59.6519 25.9503 60.5351 26.2903C61.703 26.7427 62.5363 27.2859 63.4124 28.1603C64.2885 29.0346 64.8288 29.8686 65.2835 31.0358C65.6269 31.9158 66.0332 33.241 66.144 35.6784C66.2653 38.3158 66.2895 39.1052 66.2895 45.7815C66.2895 52.4576 66.2653 53.2471 66.144 55.8844C66.033 58.3218 65.6247 59.6466 65.2835 60.5271C64.8288 61.6942 64.2873 62.5271 63.4124 63.4007C62.5375 64.2743 61.703 64.8162 60.5351 65.2706C59.6545 65.6138 58.3286 66.0198 55.8897 66.1306C53.2529 66.2519 52.4608 66.2761 45.7806 66.2761C39.1004 66.2761 38.3105 66.2519 35.6746 66.1306ZM35.4674 20.9326C32.8044 21.0538 30.9848 21.4758 29.3956 22.0938C27.7498 22.732 26.3566 23.5882 24.9643 24.9774C23.5721 26.3666 22.7176 27.7612 22.079 29.406C21.4606 30.9952 21.0384 32.8128 20.9171 35.4742C20.7938 38.1399 20.7656 38.9921 20.7656 45.7812C20.7656 52.5704 20.7938 53.4226 20.9171 56.0882C21.0384 58.7498 21.4606 60.5672 22.079 62.1564C22.7176 63.8003 23.5723 65.1964 24.9643 66.585C26.3564 67.9736 27.7498 68.8287 29.3956 69.4687C30.9878 70.0867 32.8044 70.5086 35.4674 70.6298C38.136 70.751 38.9874 70.7812 45.7806 70.7812C52.5739 70.7812 53.4266 70.753 56.0938 70.6298C58.757 70.5086 60.5755 70.0867 62.1657 69.4687C63.8104 68.8287 65.2047 67.9742 66.5969 66.585C67.9891 65.1958 68.8419 63.8003 69.4822 62.1564C70.1006 60.5672 70.5249 58.7496 70.6441 56.0882C70.7654 53.4207 70.7936 52.5704 70.7936 45.7812C70.7936 38.9921 70.7654 38.1399 70.6441 35.4742C70.5229 32.8126 70.1006 30.9942 69.4822 29.406C68.8419 27.7622 67.9869 26.3688 66.5969 24.9774C65.2069 23.586 63.8104 22.732 62.1677 22.0938C60.5755 21.4758 58.7568 21.0518 56.0958 20.9326C53.4286 20.8115 52.5759 20.7812 45.7826 20.7812C38.9894 20.7812 38.136 20.8095 35.4674 20.9326Z" fill="url(#paint1_radial_1727_5879)"/>
<defs>
<radialGradient id="paint0_radial_1727_5879" cx="0" cy="0" r="1" gradientUnits="userSpaceOnUse" gradientTransform="translate(27.4124 71.0175) scale(65.31 65.2708)">
<stop offset="0.09" stop-color="#FA8F21"/>
<stop offset="0.78" stop-color="#D82D7E"/>
</radialGradient>
<radialGradient id="paint1_radial_1727_5879" cx="0" cy="0" r="1" gradientUnits="userSpaceOnUse" gradientTransform="translate(51.1066 73.2574) scale(51.4733 51.4424)">
<stop offset="0.64" stop-color="#8C3AAA" stop-opacity="0"/>
<stop offset="1" stop-color="#8C3AAA"/>
</radialGradient>
</defs>
</svg>
