<svg width="92" height="92" viewBox="0 0 92 92" fill="none" xmlns="http://www.w3.org/2000/svg">
<path d="M68.943 31.1457C67.4312 31.7963 65.8418 32.2494 64.2141 32.4937C64.9751 32.3632 66.0948 30.9935 66.5405 30.4391C67.2176 29.6028 67.7337 28.6481 68.0624 27.6235C68.0624 27.5474 68.1385 27.4387 68.0624 27.3843C68.0241 27.3634 67.9811 27.3524 67.9374 27.3524C67.8937 27.3524 67.8508 27.3634 67.8124 27.3843C66.045 28.3414 64.164 29.0719 62.2139 29.5585C62.1459 29.5793 62.0736 29.5811 62.0046 29.5639C61.9357 29.5467 61.8727 29.511 61.8225 29.4607C61.6707 29.2799 61.5073 29.1092 61.3333 28.9497C60.5379 28.2371 59.6355 27.6538 58.6591 27.2213C57.341 26.6805 55.9173 26.4463 54.4955 26.5364C53.1159 26.6235 51.769 26.9936 50.5385 27.6235C49.3268 28.2876 48.2618 29.1899 47.4076 30.276C46.5091 31.3939 45.8605 32.6913 45.5052 34.0808C45.2123 35.4026 45.1791 36.7687 45.4074 38.1031C45.4074 38.3314 45.4074 38.364 45.2117 38.3314C37.4607 37.1899 31.1012 34.4396 25.9049 28.5366C25.6766 28.2757 25.557 28.2757 25.3722 28.5366C23.1111 31.9719 24.209 37.4073 27.0355 40.0925C27.416 40.4512 27.8073 40.7991 28.2204 41.1252C26.9245 41.0332 25.6603 40.682 24.5026 40.0925C24.2851 39.9511 24.1656 40.0272 24.1547 40.2881C24.1239 40.6498 24.1239 41.0135 24.1547 41.3752C24.3815 43.1087 25.0647 44.7508 26.1343 46.1337C27.2039 47.5166 28.6216 48.5905 30.2424 49.2458C30.6375 49.415 31.0492 49.5426 31.4708 49.6263C30.2711 49.8625 29.0407 49.8992 27.8291 49.735C27.5682 49.6806 27.4703 49.822 27.5682 50.072C29.1662 54.4204 32.634 55.7466 35.1778 56.4858C35.5257 56.5402 35.8736 56.5402 36.2649 56.6272C36.2649 56.6272 36.2649 56.6272 36.1997 56.6924C35.4496 58.0621 32.4166 58.9862 31.0251 59.4645C28.4853 60.3768 25.7774 60.7255 23.0893 60.4864C22.6654 60.4211 22.5675 60.432 22.4588 60.4864C22.3501 60.5407 22.4588 60.6603 22.5784 60.769C23.122 61.1277 23.6655 61.443 24.2308 61.7474C25.9137 62.6653 27.6928 63.3944 29.5358 63.9216C39.0805 66.5523 49.821 64.6173 56.985 57.4968C62.6161 51.9092 64.5946 44.2017 64.5946 36.4833C64.5946 36.1898 64.9534 36.0159 65.1599 35.8637C66.5846 34.7536 67.8405 33.4427 68.8886 31.9719C69.0701 31.7526 69.1632 31.4735 69.1495 31.1892C69.1495 31.0261 69.1495 31.0587 68.943 31.1457Z" fill="#33CCFF"/>
</svg>
