<svg width="160" height="51" viewBox="0 0 160 51" fill="none" xmlns="http://www.w3.org/2000/svg">
<g clip-path="url(#clip0_101_6)">
<path d="M99.9422 21.5586C118.293 13.1952 129.72 8.40387 160 0C143.556 1.23452 107.187 4.07798 82.12 9.64851L99.9422 21.5586Z" fill="#E41D1B"/>
<path d="M42.8755 49.2696H66.8755C71.6267 41.0783 76.3555 37.0812 81.8622 32.639C77.6933 30.8074 73.5067 29.0366 69.2489 27.3214C53.9333 35.017 45.4133 45.3485 42.8933 49.2696" fill="#E41D1B"/>
<path d="M47.6178 19.4589C26.2222 28.1664 14.3244 37.6176 6.29333 49.2696H32.7911C35.3733 45.1815 45.2044 33.3827 63.68 25.1812C58.5867 23.2182 49.7333 20.0711 47.6178 19.4589Z" fill="#E41D1B"/>
<path d="M58.6 1.12321H0C59.08 13.2661 87.5556 28.9051 133.333 51C129.418 47.6708 66.3244 5.3631 58.6089 1.12321" fill="#E41D1B"/>
</g>
<defs>
<clipPath id="clip0_101_6">
<rect width="160" height="51" fill="white"/>
</clipPath>
</defs>
</svg>
