<svg width="76" height="73" viewBox="0 0 76 73" fill="none" xmlns="http://www.w3.org/2000/svg">
<path d="M11.6258 8.99683C11.6238 8.99683 11.6215 8.99683 11.6195 8.99683C10.9006 8.99683 10.2246 9.26228 9.71407 9.74471C9.19793 10.2325 8.91364 10.8819 8.91364 11.5733V50.2074C8.91364 51.6241 10.135 52.7795 11.6366 52.7832C17.9669 52.7975 28.5726 54.0474 35.8891 61.301V20.8694C35.8891 20.3891 35.7596 19.938 35.5153 19.5646C29.5102 10.4029 17.9705 9.01089 11.6258 8.99683Z" fill="#F2C855"/>
<path d="M67.0866 50.2073V11.573C67.0866 10.8816 66.8023 10.2322 66.2862 9.7444C65.7757 9.26198 65.0991 8.99652 64.3811 8.99652C64.3788 8.99652 64.3764 8.99652 64.3744 8.99652C58.03 9.01082 46.4903 10.4028 40.485 19.5646C40.2406 19.9379 40.1114 20.389 40.1114 20.8693V61.3007C47.4279 54.0471 58.0336 52.7971 64.3639 52.7828C65.8652 52.7792 67.0866 51.6238 67.0866 50.2073Z" fill="#F2C855"/>
<path d="M73.2809 17.9063H71.3089V50.2073C71.3089 53.8245 68.1981 56.7741 64.374 56.7831C59.0046 56.7952 50.1512 57.7898 43.881 63.4119C54.7253 60.8965 66.157 62.5317 72.6721 63.9382C73.4856 64.1137 74.3262 63.9324 74.9779 63.4403C75.6274 62.9494 76 62.2156 76 61.4279V20.4823C76.0002 19.062 74.7801 17.9063 73.2809 17.9063Z" fill="#F2C855"/>
<path d="M4.69103 50.2073V17.9063H2.71912C1.2201 17.9063 0 19.062 0 20.4823V61.4272C0 62.2151 0.37258 62.9486 1.02204 63.4396C1.67329 63.9314 2.51313 64.1135 3.32789 63.9375C9.84293 62.5307 21.275 60.8958 32.1187 63.4112C25.8488 57.7894 16.9954 56.7949 11.626 56.7828C7.80218 56.7741 4.69103 53.8245 4.69103 50.2073Z" fill="#F2C855"/>
</svg>
