<svg width="1283" height="175" viewBox="0 0 1283 175" fill="none" xmlns="http://www.w3.org/2000/svg">
<path opacity="0.7" d="M1188.63 99.307C1188.63 97.8334 1189.37 97.0965 1190.85 97.0965C1192.32 97.0965 1193.06 97.8334 1193.06 99.307C1193.06 100.781 1192.32 101.517 1190.85 101.517C1190.11 101.517 1188.63 100.781 1188.63 99.307Z" fill="white"/>
<path opacity="0.7" d="M1098.03 94.4079C1098.03 93.6711 1098.77 92.9342 1099.5 92.9342C1100.24 92.9342 1100.98 93.6711 1100.98 94.4079C1100.98 95.1447 1100.24 95.8815 1099.5 95.8815C1098.77 96.6183 1098.03 95.8815 1098.03 94.4079Z" fill="white"/>
<path opacity="0.7" d="M257.651 20.5605C257.651 19.8237 258.389 19.0869 259.126 19.0869C259.864 19.0869 260.602 19.8237 260.602 20.5605C260.602 21.2973 259.864 22.0341 259.126 22.0341C258.389 22.0341 257.651 21.2973 257.651 20.5605Z" fill="white"/>
<path opacity="0.7" d="M1079.78 131.799C1079.78 131.062 1080.51 130.325 1081.25 130.325C1081.99 130.325 1082.73 131.062 1082.73 131.799C1082.73 132.536 1081.99 133.273 1081.25 133.273C1080.51 133.273 1079.78 132.536 1079.78 131.799Z" fill="white"/>
<path opacity="0.7" d="M1009.46 38.0864C1009.46 36.6128 1010.93 35.1392 1012.41 35.1392C1013.88 35.1392 1015.36 36.6128 1015.36 38.0864C1015.36 39.56 1013.88 41.0336 1012.41 41.0336C1010.2 41.0336 1009.46 39.56 1009.46 38.0864Z" fill="white"/>
<path opacity="0.7" d="M1276.93 160.898C1276.93 159.424 1278.4 157.95 1279.88 157.95C1281.35 157.95 1282.83 159.424 1282.83 160.898C1282.83 162.371 1281.35 163.845 1279.88 163.845C1278.4 163.845 1276.93 162.371 1276.93 160.898Z" fill="white"/>
<path opacity="0.7" d="M1214.29 61.5375C1214.29 60.8007 1215.03 60.0639 1215.76 60.0639C1216.5 60.0639 1217.24 60.8007 1217.24 61.5375C1217.24 62.2743 1216.5 63.0111 1215.76 63.0111C1215.03 63.7479 1214.29 63.0111 1214.29 61.5375Z" fill="white"/>
<path opacity="0.7" d="M409.786 62.662C409.786 61.9252 410.524 61.1884 411.261 61.1884C411.999 61.1884 412.736 61.9252 412.736 62.662C412.736 63.3988 411.999 64.1356 411.261 64.1356C410.524 64.1356 409.786 63.3988 409.786 62.662Z" fill="white"/>
<path opacity="0.7" d="M451.218 116.614C451.218 115.14 452.694 113.666 454.169 113.666C455.644 113.666 457.12 115.14 457.12 116.614C457.12 118.087 455.644 119.561 454.169 119.561C452.694 119.561 451.218 118.087 451.218 116.614Z" fill="white"/>
<path opacity="0.7" d="M523.773 141.166C523.773 139.692 525.248 138.218 526.723 138.218C528.198 138.218 529.674 139.692 529.674 141.166C529.674 142.639 528.198 144.113 526.723 144.113C525.248 144.113 523.773 142.639 523.773 141.166Z" fill="white"/>
<path opacity="0.7" d="M568.232 28.3633C568.232 27.6265 568.969 26.8896 569.707 26.8896C570.445 26.8896 571.182 27.6265 571.182 28.3633C571.182 29.1001 570.445 29.8369 569.707 29.8369C568.969 29.8369 568.232 29.1001 568.232 28.3633Z" fill="white"/>
<path opacity="0.7" d="M793.16 76.7406C793.16 74.5302 795.372 72.3198 797.585 72.3198C799.798 72.3198 802.011 74.5302 802.011 76.7406C802.011 78.951 799.798 81.1615 797.585 81.1615C795.372 80.4247 793.16 78.951 793.16 76.7406Z" fill="white"/>
<path opacity="0.7" d="M844.371 85.9692C844.371 85.2324 845.108 84.4957 845.846 84.4957C846.584 84.4957 847.321 85.2324 847.321 85.9692C847.321 86.706 846.584 87.4429 845.846 87.4429C845.108 87.4429 844.371 86.706 844.371 85.9692Z" fill="white"/>
<path opacity="0.7" d="M929.388 1.98577C929.388 1.24897 930.125 0.512179 930.863 0.512179C931.601 0.512179 932.338 1.24897 932.338 1.98577C932.338 2.72258 931.601 3.45943 930.863 3.45943C930.125 4.19624 929.388 3.45939 929.388 1.98577Z" fill="white"/>
<path opacity="0.7" d="M687.912 110.783C687.912 110.046 688.649 109.309 689.387 109.309C690.125 109.309 690.862 110.046 690.862 110.783C690.862 111.52 690.125 112.256 689.387 112.256C688.649 112.256 687.912 111.52 687.912 110.783Z" fill="white"/>
<path opacity="0.7" d="M851.553 158.666C851.553 157.929 852.291 157.192 853.028 157.192C853.766 157.192 854.504 157.929 854.504 158.666C854.504 159.403 853.766 160.14 853.028 160.14C852.291 160.14 851.553 159.403 851.553 158.666Z" fill="white"/>
<path opacity="0.7" d="M1037.71 89.7771C1037.71 88.3034 1039.18 86.8299 1040.66 86.8299C1042.13 86.8299 1043.61 88.3034 1043.61 89.7771C1043.61 91.2507 1042.13 92.7243 1040.66 92.7243C1039.18 92.7243 1037.71 91.2507 1037.71 89.7771Z" fill="white"/>
<path opacity="0.7" d="M1005.38 127.887C1005.38 126.414 1006.85 124.94 1008.33 124.94C1009.8 124.94 1011.28 126.414 1011.28 127.887C1011.28 129.361 1009.8 130.835 1008.33 130.835C1006.85 130.835 1005.38 129.361 1005.38 127.887Z" fill="white"/>
<path opacity="0.7" d="M885.805 139.921C885.805 138.447 887.28 136.974 888.755 136.974C890.231 136.974 891.706 138.447 891.706 139.921C891.706 141.395 890.231 142.868 888.755 142.868C887.28 142.868 885.805 141.395 885.805 139.921Z" fill="white"/>
<path opacity="0.7" d="M741.615 18.6359C741.615 16.4255 743.828 14.2151 746.041 14.2151C748.254 14.2151 750.467 16.4255 750.467 18.6359C750.467 20.8464 748.254 23.0568 746.041 23.0568C743.09 23.0568 741.615 21.5832 741.615 18.6359Z" fill="white"/>
<path opacity="0.7" d="M772.337 161.954C772.337 159.744 774.549 157.533 776.762 157.533C778.975 157.533 781.188 159.744 781.188 161.954C781.188 164.164 778.975 166.375 776.762 166.375C774.549 166.375 772.337 164.164 772.337 161.954Z" fill="white"/>
<path opacity="0.7" d="M705.444 142.055C705.444 140.581 706.919 139.108 708.394 139.108C709.87 139.108 711.345 140.581 711.345 142.055C711.345 143.528 709.87 145.002 708.394 145.002C706.919 145.002 705.444 143.528 705.444 142.055Z" fill="white"/>
<path opacity="0.7" d="M656.146 124.614C656.146 123.14 656.883 122.403 658.358 122.403C659.834 122.403 660.571 123.14 660.571 124.614C660.571 126.087 659.834 126.824 658.358 126.824C657.621 126.824 656.146 125.35 656.146 124.614Z" fill="white"/>
<path opacity="0.7" d="M593.724 172.718C593.724 173.455 592.986 174.192 592.248 174.192C591.511 174.192 590.773 173.455 590.773 172.718C590.773 171.981 591.511 171.244 592.248 171.244C592.986 171.244 593.724 171.981 593.724 172.718Z" fill="white"/>
<path opacity="0.7" d="M479.882 64.0497C479.882 64.7865 479.144 65.5233 478.406 65.5233C477.668 65.5233 476.931 64.7865 476.931 64.0497C476.931 63.3128 477.668 62.576 478.406 62.576C479.144 62.576 479.882 63.3128 479.882 64.0497Z" fill="white"/>
<path opacity="0.7" d="M640.514 57.7484C640.514 59.9588 638.301 62.1692 636.089 62.1692C633.876 62.1692 631.663 59.9588 631.663 57.7484C631.663 55.5379 633.876 53.3275 636.089 53.3275C639.039 54.0643 640.514 55.5379 640.514 57.7484Z" fill="white"/>
<path opacity="0.7" d="M91.1214 40.446C91.1214 38.9724 91.8591 38.2356 93.3344 38.2356C94.8096 38.2356 95.5472 38.9724 95.5472 40.446C95.5472 41.9197 94.8096 42.6564 93.3344 42.6564C92.5967 42.6564 91.1214 41.9197 91.1214 40.446Z" fill="white"/>
<path opacity="0.7" d="M137.982 48.0848C137.982 47.348 138.72 46.6112 139.458 46.6112C140.195 46.6112 140.933 47.348 140.933 48.0848C140.933 48.8216 140.195 49.5584 139.458 49.5584C138.72 49.5584 137.982 48.8216 137.982 48.0848Z" fill="white"/>
<path opacity="0.7" d="M0.513814 35.5469C0.513814 34.8101 1.25145 34.0732 1.98912 34.0732C2.72678 34.0732 3.46442 34.8101 3.46442 35.5469C3.46442 36.2837 2.72678 37.0205 1.98912 37.0205C1.25145 37.7573 0.513814 37.0205 0.513814 35.5469Z" fill="white"/>
<path opacity="0.7" d="M145.165 120.782C145.165 120.045 145.902 119.308 146.64 119.308C147.378 119.308 148.115 120.045 148.115 120.782C148.115 121.518 147.378 122.255 146.64 122.255C145.902 122.255 145.165 121.518 145.165 120.782Z" fill="white"/>
<path opacity="0.7" d="M177.707 23.6917C177.707 22.2181 178.445 21.4812 179.92 21.4812C181.396 21.4812 182.133 22.2181 182.133 23.6917C182.133 25.1653 181.396 25.9022 179.92 25.9022C179.183 25.9022 177.707 25.1653 177.707 23.6917Z" fill="white"/>
<path opacity="0.7" d="M298.99 90.0028C298.99 88.5292 300.465 87.0556 301.94 87.0556C303.416 87.0556 304.891 88.5292 304.891 90.0028C304.891 91.4764 303.416 92.9501 301.94 92.9501C300.465 92.9501 298.99 91.4764 298.99 90.0028Z" fill="white"/>
<path opacity="0.7" d="M179.416 102.037C179.416 100.563 180.892 99.0894 182.367 99.0894C183.842 99.0894 185.318 100.563 185.318 102.037C185.318 103.51 183.842 104.984 182.367 104.984C180.892 104.984 179.416 103.51 179.416 102.037Z" fill="white"/>
<path opacity="0.7" d="M116.777 2.67651C116.777 1.9397 117.514 1.20291 118.252 1.20291C118.989 1.20291 119.727 1.9397 119.727 2.67651C119.727 3.41332 118.989 4.15016 118.252 4.15016C117.514 4.88697 116.777 4.15013 116.777 2.67651Z" fill="white"/>
<path opacity="0.7" d="M26.999 254.327C26.999 255.8 26.2613 256.537 24.786 256.537C23.3107 256.537 22.5731 255.8 22.5731 254.327C22.5731 252.853 23.3107 252.116 24.786 252.116C25.5237 252.116 26.999 252.853 26.999 254.327Z" fill="white"/>
<path opacity="0.7" d="M117.729 254.327C117.729 255.064 116.991 255.801 116.253 255.801C115.516 255.801 114.778 255.064 114.778 254.327C114.778 253.59 115.516 252.853 116.253 252.853C116.991 252.117 117.729 252.853 117.729 254.327Z" fill="white"/>
<path opacity="0.7" d="M960.862 283.062C960.862 283.799 960.124 284.536 959.386 284.536C958.649 284.536 957.911 283.799 957.911 283.062C957.911 282.326 958.649 281.589 959.386 281.589C960.124 281.589 960.862 282.326 960.862 283.062Z" fill="white"/>
<path opacity="0.7" d="M136.911 166.646C136.911 167.383 136.174 168.12 135.436 168.12C134.698 168.12 133.961 167.383 133.961 166.646C133.961 165.91 134.698 165.173 135.436 165.173C136.174 165.173 136.911 165.91 136.911 166.646Z" fill="white"/>
<path opacity="0.7" d="M133.958 216.012C133.958 216.749 133.221 217.486 132.483 217.486C131.745 217.486 131.008 216.749 131.008 216.012C131.008 215.275 131.745 214.538 132.483 214.538C133.221 214.538 133.958 215.275 133.958 216.012Z" fill="white"/>
<path opacity="0.7" d="M209.197 305.903C209.197 307.377 207.721 308.851 206.246 308.851C204.771 308.851 203.295 307.377 203.295 305.903C203.295 304.43 204.771 302.956 206.246 302.956C208.459 302.956 209.197 304.43 209.197 305.903Z" fill="white"/>
<path opacity="0.7" d="M698.256 42.8621C698.256 43.599 697.518 44.3357 696.781 44.3357C696.043 44.3357 695.305 43.599 695.305 42.8621C695.305 42.1253 696.043 41.3885 696.781 41.3885C697.518 41.3885 698.256 41.3885 698.256 42.8621Z" fill="white"/>
<path opacity="0.7" d="M24.0529 16.3378C24.0529 17.0746 23.3152 17.8114 22.5776 17.8114C21.8399 17.8114 21.1023 17.0746 21.1023 16.3378C21.1023 15.601 21.8399 14.8641 22.5776 14.8641C23.3152 14.8641 24.0529 15.601 24.0529 16.3378Z" fill="white"/>
<path opacity="0.7" d="M507.945 442.96C507.945 443.697 507.208 444.434 506.47 444.434C505.732 444.434 504.995 443.697 504.995 442.96C504.995 442.223 505.732 441.486 506.47 441.486C507.208 441.486 507.945 442.223 507.945 442.96Z" fill="white"/>
<path opacity="0.7" d="M88.9642 104.755C88.9642 105.492 88.2266 106.229 87.489 106.229C86.7513 106.229 86.0137 105.492 86.0137 104.755C86.0137 104.018 86.7513 103.281 87.489 103.281C88.2266 103.281 88.9642 104.018 88.9642 104.755Z" fill="white"/>
<path opacity="0.7" d="M618.589 23.7046C618.589 25.1782 617.114 26.6519 615.639 26.6519C614.164 26.6519 612.688 25.1782 612.688 23.7046C612.688 22.231 614.164 20.7574 615.639 20.7574C617.852 20.7574 618.589 21.4942 618.589 23.7046Z" fill="white"/>
<path opacity="0.7" d="M135.436 369.27C135.436 371.48 133.223 373.691 131.01 373.691C128.797 373.691 126.584 371.48 126.584 369.27C126.584 367.059 128.797 364.849 131.01 364.849C133.223 365.586 135.436 367.059 135.436 369.27Z" fill="white"/>
<path opacity="0.7" d="M3.39453 293.377C3.39453 294.113 2.65689 294.85 1.91925 294.85C1.18161 294.85 0.44397 294.113 0.44397 293.377C0.44397 292.64 1.18161 291.903 1.91925 291.903C2.65689 291.166 3.39453 291.903 3.39453 293.377Z" fill="white"/>
<path opacity="0.7" d="M94.1287 416.424C94.1287 417.161 93.3911 417.898 92.6535 417.898C91.9158 417.898 91.1782 417.161 91.1782 416.424C91.1782 415.687 91.9158 414.951 92.6535 414.951C93.3911 414.951 94.1287 415.687 94.1287 416.424Z" fill="white"/>
<path opacity="0.7" d="M806.69 249.169C806.69 249.906 805.953 250.642 805.215 250.642C804.478 250.642 803.74 249.906 803.74 249.169C803.74 248.432 804.478 247.695 805.215 247.695C805.953 247.695 806.69 248.432 806.69 249.169Z" fill="white"/>
<path opacity="0.7" d="M850.95 409.056C850.95 409.793 850.212 410.53 849.475 410.53C848.737 410.53 847.999 409.793 847.999 409.056C847.999 408.319 848.737 407.583 849.475 407.583C850.212 407.583 850.95 408.319 850.95 409.056Z" fill="white"/>
<path opacity="0.7" d="M628.18 399.479C628.18 400.215 627.442 400.952 626.705 400.952C625.967 400.952 625.229 400.215 625.229 399.479C625.229 398.742 625.967 398.005 626.705 398.005C627.442 398.005 628.18 398.742 628.18 399.479Z" fill="white"/>
<path opacity="0.7" d="M938.731 335.376C938.731 336.113 937.994 336.85 937.256 336.85C936.518 336.85 935.781 336.113 935.781 335.376C935.781 334.639 936.518 333.903 937.256 333.903C937.994 333.166 938.731 333.903 938.731 335.376Z" fill="white"/>
<path opacity="0.7" d="M812.595 347.901C812.595 349.375 811.12 350.848 809.645 350.848C808.169 350.848 806.694 349.375 806.694 347.901C806.694 346.427 808.169 344.954 809.645 344.954C811.12 344.954 812.595 346.427 812.595 347.901Z" fill="white"/>
<path opacity="0.7" d="M762.43 197.593C762.43 199.066 760.955 200.54 759.48 200.54C758.004 200.54 756.529 199.066 756.529 197.593C756.529 196.119 758.004 194.645 759.48 194.645C760.955 194.645 762.43 196.119 762.43 197.593Z" fill="white"/>
<path opacity="0.7" d="M811.857 425.267C811.857 426.004 811.119 426.741 810.381 426.741C809.644 426.741 808.906 426.004 808.906 425.267C808.906 424.53 809.644 423.793 810.381 423.793C811.119 423.793 811.857 424.53 811.857 425.267Z" fill="white"/>
<path opacity="0.7" d="M850.95 16.3378C850.95 17.0746 850.212 17.8114 849.475 17.8114C848.737 17.8114 847.999 17.0746 847.999 16.3378C847.999 15.601 848.737 14.8641 849.475 14.8641C850.212 14.8641 850.95 15.601 850.95 16.3378Z" fill="white"/>
<path opacity="0.7" d="M842.096 113.596C842.096 114.333 841.359 115.07 840.621 115.07C839.884 115.07 839.146 114.333 839.146 113.596C839.146 112.859 839.884 112.123 840.621 112.123C841.359 112.123 842.096 112.859 842.096 113.596Z" fill="white"/>
<path opacity="0.7" d="M688.665 176.961C688.665 178.435 687.19 179.909 685.715 179.909C684.24 179.909 682.764 178.435 682.764 176.961C682.764 175.488 684.24 174.014 685.715 174.014C687.19 174.014 688.665 175.488 688.665 176.961Z" fill="white"/>
<path opacity="0.7" d="M650.309 291.904C650.309 292.641 649.571 293.378 648.834 293.378C648.096 293.378 647.358 292.641 647.358 291.904C647.358 291.167 648.096 290.43 648.834 290.43C649.571 290.43 650.309 291.167 650.309 291.904Z" fill="white"/>
<path opacity="0.7" d="M423.117 255.8C423.117 258.01 420.904 260.221 418.691 260.221C416.479 260.221 414.266 258.01 414.266 255.8C414.266 253.589 416.479 251.379 418.691 251.379C420.904 252.116 423.117 253.589 423.117 255.8Z" fill="white"/>
<path opacity="0.7" d="M371.481 249.169C371.481 249.906 370.743 250.642 370.006 250.642C369.268 250.642 368.53 249.906 368.53 249.169C368.53 248.432 369.268 247.695 370.006 247.695C370.743 247.695 371.481 248.432 371.481 249.169Z" fill="white"/>
<path opacity="0.7" d="M280.752 73.8085C280.752 74.5453 280.014 75.2822 279.277 75.2822C278.539 75.2822 277.801 74.5453 277.801 73.8085C277.801 73.0717 278.539 72.3349 279.277 72.3349C280.014 71.5981 280.752 72.3349 280.752 73.8085Z" fill="white"/>
<path opacity="0.7" d="M416.475 409.056C416.475 409.793 415.738 410.53 415 410.53C414.262 410.53 413.525 409.793 413.525 409.056C413.525 408.319 414.262 407.583 415 407.583C415.738 407.583 416.475 408.319 416.475 409.056Z" fill="white"/>
<path opacity="0.7" d="M330.91 372.953C330.91 373.69 330.173 374.427 329.435 374.427C328.697 374.427 327.96 373.69 327.96 372.953C327.96 372.216 328.697 371.479 329.435 371.479C330.173 371.479 330.91 372.216 330.91 372.953Z" fill="white"/>
<path opacity="0.7" d="M526.387 433.371C526.387 434.108 525.649 434.845 524.911 434.845C524.174 434.845 523.436 434.108 523.436 433.371C523.436 432.634 524.174 431.897 524.911 431.897C525.649 431.897 526.387 432.634 526.387 433.371Z" fill="white"/>
<path opacity="0.7" d="M291.076 337.585C291.076 338.322 290.338 339.059 289.601 339.059C288.863 339.059 288.125 338.322 288.125 337.585C288.125 336.848 288.863 336.112 289.601 336.112C290.338 335.375 291.076 336.112 291.076 337.585Z" fill="white"/>
<path opacity="0.7" d="M526.387 216.012C526.387 216.749 525.649 217.486 524.911 217.486C524.174 217.486 523.436 216.749 523.436 216.012C523.436 215.275 524.174 214.538 524.911 214.538C525.649 214.538 526.387 215.275 526.387 216.012Z" fill="white"/>
<path opacity="0.7" d="M360.416 176.961C360.416 177.698 359.678 178.435 358.941 178.435C358.203 178.435 357.465 177.698 357.465 176.961C357.465 176.224 358.203 175.488 358.941 175.488C359.678 175.488 360.416 176.224 360.416 176.961Z" fill="white"/>
<path opacity="0.7" d="M178.22 255.8C178.22 257.273 176.745 258.747 175.27 258.747C173.795 258.747 172.319 257.273 172.319 255.8C172.319 254.326 173.795 252.852 175.27 252.852C176.745 252.852 178.22 254.326 178.22 255.8Z" fill="white"/>
<path opacity="0.7" d="M208.462 216.013C208.462 217.486 206.987 218.96 205.511 218.96C204.036 218.96 202.561 217.486 202.561 216.013C202.561 214.539 204.036 213.066 205.511 213.066C206.987 213.066 208.462 214.539 208.462 216.013Z" fill="white"/>
<path opacity="0.7" d="M184.121 413.478C184.121 414.952 182.646 416.425 181.17 416.425C179.695 416.425 178.22 414.952 178.22 413.478C178.22 412.004 179.695 410.531 181.17 410.531C182.646 410.531 184.121 412.004 184.121 413.478Z" fill="white"/>
<path opacity="0.7" d="M327.219 197.593C327.219 199.066 325.744 200.54 324.269 200.54C322.794 200.54 321.318 199.066 321.318 197.593C321.318 196.119 322.794 194.645 324.269 194.645C325.744 194.645 327.219 196.119 327.219 197.593Z" fill="white"/>
<path opacity="0.7" d="M263.045 395.794C263.045 397.267 262.307 398.004 260.832 398.004C259.356 398.004 258.619 397.267 258.619 395.794C258.619 394.32 259.356 393.583 260.832 393.583C262.307 393.583 263.045 394.32 263.045 395.794Z" fill="white"/>
<path opacity="0.7" d="M477.699 311.061C477.699 313.271 475.486 315.482 473.274 315.482C471.061 315.482 468.848 313.271 468.848 311.061C468.848 308.85 471.061 306.64 473.274 306.64C476.224 306.64 477.699 308.113 477.699 311.061Z" fill="white"/>
<path opacity="0.7" d="M267.474 160.752C267.474 162.226 266.737 162.963 265.261 162.963C263.786 162.963 263.048 162.226 263.048 160.752C263.048 159.279 263.786 158.542 265.261 158.542C265.999 158.542 267.474 159.279 267.474 160.752Z" fill="white"/>
<path opacity="0.7" d="M228.375 75.2823C228.375 76.0191 227.637 76.7559 226.9 76.7559C226.162 76.7559 225.424 76.0191 225.424 75.2823C225.424 74.5455 226.162 73.8087 226.9 73.8087C227.637 73.8087 228.375 74.5455 228.375 75.2823Z" fill="white"/>
<path opacity="0.7" d="M416.475 16.3378C416.475 17.0746 415.738 17.8114 415 17.8114C414.262 17.8114 413.525 17.0746 413.525 16.3378C413.525 15.601 414.262 14.8641 415 14.8641C415.738 14.8641 416.475 15.601 416.475 16.3378Z" fill="white"/>
<path opacity="0.7" d="M407.628 113.596C407.628 114.333 406.89 115.07 406.153 115.07C405.415 115.07 404.677 114.333 404.677 113.596C404.677 112.859 405.415 112.123 406.153 112.123C406.89 112.123 407.628 112.859 407.628 113.596Z" fill="white"/>
<path opacity="0.7" d="M479.917 106.229C480.732 106.229 481.393 105.569 481.393 104.755C481.393 103.941 480.732 103.281 479.917 103.281C479.103 103.281 478.442 103.941 478.442 104.755C478.442 105.569 479.103 106.229 479.917 106.229Z" fill="white"/>
<path opacity="0.7" d="M352.303 110.648C352.303 112.122 350.827 113.595 349.352 113.595C347.877 113.595 346.401 112.122 346.401 110.648C346.401 109.175 347.877 107.701 349.352 107.701C351.565 107.701 352.303 109.175 352.303 110.648Z" fill="white"/>
<path opacity="0.7" d="M302.879 71.5974C302.879 73.0711 301.403 74.5447 299.928 74.5447C298.453 74.5447 296.977 73.0711 296.977 71.5974C296.977 70.1238 298.453 68.6502 299.928 68.6502C302.141 68.6502 302.879 69.387 302.879 71.5974Z" fill="white"/>
<path opacity="0.7" d="M184.121 21.4951C184.121 22.9687 182.646 24.4423 181.17 24.4423C179.695 24.4423 178.22 22.9687 178.22 21.4951C178.22 20.0215 179.695 18.5478 181.17 18.5478C182.646 18.5478 184.121 19.2846 184.121 21.4951Z" fill="white"/>
<path opacity="0.7" d="M263.045 3.07408C263.045 4.54771 262.307 5.28451 260.832 5.28451C259.356 5.28451 258.619 4.54771 258.619 3.07408C258.619 1.60045 259.356 0.863647 260.832 0.863647C262.307 0.863647 263.045 2.33727 263.045 3.07408Z" fill="white"/>
<path opacity="0.7" d="M225.427 108.439C225.427 109.912 224.689 110.649 223.214 110.649C221.739 110.649 221.001 109.912 221.001 108.439C221.001 106.965 221.739 106.228 223.214 106.228C223.952 106.228 225.427 106.965 225.427 108.439Z" fill="white"/>
<path opacity="0.7" d="M357.468 58.3349C357.468 59.8086 356.73 60.5454 355.255 60.5454C353.779 60.5454 353.042 59.8086 353.042 58.3349C353.042 56.8613 353.779 56.1245 355.255 56.1245C355.992 56.1245 357.468 56.8613 357.468 58.3349Z" fill="white"/>
<path opacity="0.7" d="M175.265 98.8594C175.265 101.07 173.052 103.28 170.84 103.28C168.627 103.28 166.414 101.07 166.414 98.8594C166.414 96.6489 168.627 94.4385 170.84 94.4385C173.79 94.4385 175.265 96.6489 175.265 98.8594Z" fill="white"/>
<path opacity="0.7" d="M392.134 350.848C392.134 351.585 391.397 352.322 390.659 352.322C389.921 352.322 389.184 351.585 389.184 350.848C389.184 350.112 389.921 349.375 390.659 349.375C391.397 349.375 392.134 350.112 392.134 350.848Z" fill="white"/>
<path opacity="0.7" d="M233.539 428.951C233.539 430.424 232.802 431.161 231.326 431.161C229.851 431.161 229.113 430.424 229.113 428.951C229.113 427.477 229.851 426.74 231.326 426.74C232.802 426.74 233.539 427.477 233.539 428.951Z" fill="white"/>
<path opacity="0.7" d="M439.347 169.594C439.347 171.804 437.134 174.014 434.921 174.014C432.708 174.014 430.495 171.804 430.495 169.594C430.495 167.383 432.708 165.173 434.921 165.173C437.134 165.173 439.347 167.383 439.347 169.594Z" fill="white"/>
<path opacity="0.7" d="M480.655 101.807C480.655 103.28 479.179 104.754 477.704 104.754C476.229 104.754 474.753 103.28 474.753 101.807C474.753 100.333 476.229 98.8596 477.704 98.8596C479.917 98.8596 480.655 100.333 480.655 101.807Z" fill="white"/>
<path opacity="0.7" d="M507.207 185.803C507.207 187.276 505.732 188.75 504.257 188.75C502.781 188.75 501.306 187.276 501.306 185.803C501.306 184.329 502.781 182.856 504.257 182.856C505.732 182.856 507.207 184.329 507.207 185.803Z" fill="white"/>
<path opacity="0.7" d="M557.368 200.539C557.368 202.013 556.63 202.75 555.155 202.75C553.679 202.75 552.942 202.013 552.942 200.539C552.942 199.066 553.679 198.329 555.155 198.329C555.892 198.329 557.368 199.803 557.368 200.539Z" fill="white"/>
<path opacity="0.7" d="M772.023 115.07C772.023 114.333 772.76 113.596 773.498 113.596C774.236 113.596 774.973 114.333 774.973 115.07C774.973 115.807 774.236 116.543 773.498 116.543C772.76 117.28 772.023 116.543 772.023 115.07Z" fill="white"/>
<path opacity="0.7" d="M617.118 148.963C617.118 148.227 617.856 147.49 618.594 147.49C619.331 147.49 620.069 148.227 620.069 148.963C620.069 149.7 619.331 150.437 618.594 150.437C617.856 150.437 617.118 149.7 617.118 148.963Z" fill="white"/>
<path opacity="0.7" d="M766.123 17.074C766.123 15.6004 767.599 14.1268 769.074 14.1268C770.549 14.1268 772.025 15.6004 772.025 17.074C772.025 18.5476 770.549 20.0212 769.074 20.0212C767.599 20.0212 766.123 18.5476 766.123 17.074Z" fill="white"/>
<path opacity="0.7" d="M736.617 251.379C736.617 250.642 737.355 249.905 738.092 249.905C738.83 249.905 739.568 250.642 739.568 251.379C739.568 252.116 738.83 252.853 738.092 252.853C737.355 252.853 736.617 252.116 736.617 251.379Z" fill="white"/>
<path opacity="0.7" d="M766.123 409.056C766.123 407.583 767.599 406.109 769.074 406.109C770.549 406.109 772.025 407.583 772.025 409.056C772.025 410.53 770.549 412.004 769.074 412.004C767.599 412.004 766.123 411.267 766.123 409.056Z" fill="white"/>
<path opacity="0.7" d="M639.247 48.7568C639.247 47.2832 640.723 45.8096 642.198 45.8096C643.673 45.8096 645.149 47.2832 645.149 48.7568C645.149 50.2304 643.673 51.704 642.198 51.704C640.723 51.704 639.247 50.2304 639.247 48.7568Z" fill="white"/>
<path opacity="0.7" d="M567.694 343.481C567.694 342.007 569.17 340.533 570.645 340.533C572.12 340.533 573.595 342.007 573.595 343.481C573.595 344.954 572.12 346.428 570.645 346.428C568.432 346.428 567.694 344.954 567.694 343.481Z" fill="white"/>
<path opacity="0.7" d="M576.548 266.116C576.548 263.906 578.761 261.695 580.974 261.695C583.187 261.695 585.399 263.906 585.399 266.116C585.399 268.326 583.187 270.537 580.974 270.537C578.023 269.8 576.548 268.326 576.548 266.116Z" fill="white"/>
<path opacity="0.7" d="M1126.09 254.327C1126.09 255.8 1125.35 256.537 1123.88 256.537C1122.4 256.537 1121.66 255.8 1121.66 254.327C1121.66 252.853 1122.4 252.116 1123.88 252.116C1124.61 252.116 1126.09 252.853 1126.09 254.327Z" fill="white"/>
<path opacity="0.7" d="M1078.88 249.169C1078.88 249.906 1078.15 250.642 1077.41 250.642C1076.67 250.642 1075.93 249.906 1075.93 249.169C1075.93 248.432 1076.67 247.695 1077.41 247.695C1078.15 247.695 1078.88 248.432 1078.88 249.169Z" fill="white"/>
<path opacity="0.7" d="M1216.82 254.327C1216.82 255.064 1216.08 255.801 1215.34 255.801C1214.61 255.801 1213.87 255.064 1213.87 254.327C1213.87 253.59 1214.61 252.853 1215.34 252.853C1216.08 252.117 1216.82 252.853 1216.82 254.327Z" fill="white"/>
<path opacity="0.7" d="M1123.14 409.056C1123.14 409.793 1122.41 410.53 1121.67 410.53C1120.93 410.53 1120.19 409.793 1120.19 409.056C1120.19 408.319 1120.93 407.583 1121.67 407.583C1122.41 407.583 1123.14 408.319 1123.14 409.056Z" fill="white"/>
<path opacity="0.7" d="M1398.28 311.061C1398.28 311.798 1397.55 312.535 1396.81 312.535C1396.07 312.535 1395.33 311.798 1395.33 311.061C1395.33 310.325 1396.07 309.588 1396.81 309.588C1397.55 308.851 1398.28 309.588 1398.28 311.061Z" fill="white"/>
<path opacity="0.7" d="M1233.05 216.012C1233.05 216.749 1232.31 217.486 1231.57 217.486C1230.84 217.486 1230.1 216.749 1230.1 216.012C1230.1 215.275 1230.84 214.538 1231.57 214.538C1232.31 214.538 1233.05 215.275 1233.05 216.012Z" fill="white"/>
<path opacity="0.7" d="M1067.82 176.961C1067.82 177.698 1067.08 178.435 1066.34 178.435C1065.61 178.435 1064.87 177.698 1064.87 176.961C1064.87 176.224 1065.61 175.488 1066.34 175.488C1067.08 175.488 1067.82 176.224 1067.82 176.961Z" fill="white"/>
<path opacity="0.7" d="M1040.52 275.694C1040.52 277.168 1039.79 277.904 1038.31 277.904C1036.84 277.904 1036.1 277.168 1036.1 275.694C1036.1 274.22 1036.84 273.484 1038.31 273.484C1039.05 273.484 1040.52 274.22 1040.52 275.694Z" fill="white"/>
<path opacity="0.7" d="M915.865 216.013C915.865 217.486 914.39 218.96 912.915 218.96C911.44 218.96 909.964 217.486 909.964 216.013C909.964 214.539 911.44 213.066 912.915 213.066C914.39 213.066 915.865 214.539 915.865 216.013Z" fill="white"/>
<path opacity="0.7" d="M1034.62 197.593C1034.62 199.066 1033.15 200.54 1031.67 200.54C1030.2 200.54 1028.72 199.066 1028.72 197.593C1028.72 196.119 1030.2 194.645 1031.67 194.645C1033.15 194.645 1034.62 196.119 1034.62 197.593Z" fill="white"/>
<path opacity="0.7" d="M1123.14 16.3378C1123.14 17.0746 1122.41 17.8114 1121.67 17.8114C1120.93 17.8114 1120.19 17.0746 1120.19 16.3378C1120.19 15.601 1120.93 14.8641 1121.67 14.8641C1122.41 14.8641 1123.14 15.601 1123.14 16.3378Z" fill="white"/>
<path opacity="0.7" d="M1114.29 113.596C1114.29 114.333 1113.55 115.07 1112.82 115.07C1112.08 115.07 1111.34 114.333 1111.34 113.596C1111.34 112.859 1112.08 112.123 1112.82 112.123C1113.55 112.123 1114.29 112.859 1114.29 113.596Z" fill="white"/>
<path opacity="0.7" d="M1188.05 104.755C1188.05 105.492 1187.32 106.229 1186.58 106.229C1185.84 106.229 1185.1 105.492 1185.1 104.755C1185.1 104.018 1185.84 103.281 1186.58 103.281C1187.32 103.281 1188.05 104.018 1188.05 104.755Z" fill="white"/>
<path opacity="0.7" d="M1059.71 110.648C1059.71 112.122 1058.23 113.595 1056.76 113.595C1055.28 113.595 1053.8 112.122 1053.8 110.648C1053.8 109.175 1055.28 107.701 1056.76 107.701C1058.23 107.701 1059.71 109.175 1059.71 110.648Z" fill="white"/>
<path opacity="0.7" d="M1010.28 71.5974C1010.28 73.0711 1008.81 74.5447 1007.33 74.5447C1005.86 74.5447 1004.38 73.0711 1004.38 71.5974C1004.38 70.1238 1005.86 68.6502 1007.33 68.6502C1008.81 68.6502 1010.28 69.387 1010.28 71.5974Z" fill="white"/>
<path opacity="0.7" d="M891.518 21.4951C891.518 22.9687 890.043 24.4423 888.568 24.4423C887.092 24.4423 885.617 22.9687 885.617 21.4951C885.617 20.0215 887.092 18.5478 888.568 18.5478C890.043 18.5478 891.518 19.2846 891.518 21.4951Z" fill="white"/>
<path opacity="0.7" d="M969.713 3.07408C969.713 4.54771 968.976 5.28451 967.5 5.28451C966.025 5.28451 965.287 4.54771 965.287 3.07408C965.287 1.60045 966.025 0.863647 967.5 0.863647C968.976 0.863647 969.713 2.33727 969.713 3.07408Z" fill="white"/>
<path opacity="0.7" d="M1102.48 293.377C1102.48 294.113 1101.75 294.85 1101.01 294.85C1100.27 294.85 1099.53 294.113 1099.53 293.377C1099.53 292.64 1100.27 291.903 1101.01 291.903C1101.75 291.166 1102.48 291.903 1102.48 293.377Z" fill="white"/>
<path opacity="0.7" d="M665.8 347.165C665.8 348.638 664.325 350.112 662.85 350.112C661.374 350.112 659.899 348.638 659.899 347.165C659.899 345.691 661.374 344.218 662.85 344.218C664.325 344.218 665.8 344.954 665.8 347.165Z" fill="white"/>
<path opacity="0.7" d="M1240.42 413.477C1240.42 414.214 1239.69 414.951 1238.95 414.951C1238.21 414.951 1237.47 414.214 1237.47 413.477C1237.47 412.74 1238.21 412.004 1238.95 412.004C1239.69 412.004 1240.42 412.74 1240.42 413.477Z" fill="white"/>
<path opacity="0.7" d="M940.943 428.951C940.943 430.424 940.205 431.161 938.73 431.161C937.254 431.161 936.517 430.424 936.517 428.951C936.517 427.477 937.254 426.74 938.73 426.74C940.205 426.74 940.943 427.477 940.943 428.951Z" fill="white"/>
<path opacity="0.7" d="M1379.84 73.8085C1379.84 74.5453 1379.1 75.2822 1378.37 75.2822C1377.63 75.2822 1376.89 74.5453 1376.89 73.8085C1376.89 73.0717 1377.63 72.3349 1378.37 72.3349C1379.1 71.5981 1379.84 72.3349 1379.84 73.8085Z" fill="white"/>
<path opacity="0.7" d="M1277.31 255.8C1277.31 257.273 1275.83 258.747 1274.36 258.747C1272.88 258.747 1271.41 257.273 1271.41 255.8C1271.41 254.326 1272.88 252.852 1274.36 252.852C1275.83 252.852 1277.31 254.326 1277.31 255.8Z" fill="white"/>
<path opacity="0.7" d="M1307.55 216.013C1307.55 217.486 1306.08 218.96 1304.6 218.96C1303.13 218.96 1301.65 217.486 1301.65 216.013C1301.65 214.539 1303.13 213.066 1304.6 213.066C1306.81 213.066 1307.55 214.539 1307.55 216.013Z" fill="white"/>
<path opacity="0.7" d="M1283.21 413.478C1283.21 414.952 1281.74 416.425 1280.26 416.425C1278.78 416.425 1277.31 414.952 1277.31 413.478C1277.31 412.004 1278.78 410.531 1280.26 410.531C1281.74 410.531 1283.21 412.004 1283.21 413.478Z" fill="white"/>
<path opacity="0.7" d="M1277.31 647.713C1277.31 649.186 1275.83 650.66 1274.36 650.66C1272.88 650.66 1271.41 649.186 1271.41 647.713C1271.41 646.239 1272.88 644.766 1274.36 644.766C1275.83 644.766 1277.31 646.239 1277.31 647.713Z" fill="white"/>
<path opacity="0.7" d="M1362.14 395.794C1362.14 397.267 1361.4 398.004 1359.92 398.004C1358.45 398.004 1357.71 397.267 1357.71 395.794C1357.71 394.32 1358.45 393.583 1359.92 393.583C1361.4 393.583 1362.14 394.32 1362.14 395.794Z" fill="white"/>
<path opacity="0.7" d="M1366.56 160.752C1366.56 162.226 1365.83 162.963 1364.35 162.963C1362.88 162.963 1362.14 162.226 1362.14 160.752C1362.14 159.279 1362.88 158.542 1364.35 158.542C1365.83 158.542 1366.56 159.279 1366.56 160.752Z" fill="white"/>
<path opacity="0.7" d="M1398.28 702.975C1398.28 703.711 1397.55 704.448 1396.81 704.448C1396.07 704.448 1395.33 703.711 1395.33 702.975C1395.33 702.238 1396.07 701.501 1396.81 701.501C1397.55 700.764 1398.28 701.501 1398.28 702.975Z" fill="white"/>
<path opacity="0.7" d="M1379.84 465.722C1379.84 466.458 1379.1 467.195 1378.37 467.195C1377.63 467.195 1376.89 466.458 1376.89 465.722C1376.89 464.985 1377.63 464.248 1378.37 464.248C1379.1 463.511 1379.84 464.248 1379.84 465.722Z" fill="white"/>
<path opacity="0.7" d="M1307.55 607.926C1307.55 609.4 1306.08 610.873 1304.6 610.873C1303.13 610.873 1301.65 609.4 1301.65 607.926C1301.65 606.452 1303.13 604.979 1304.6 604.979C1306.81 604.979 1307.55 606.452 1307.55 607.926Z" fill="white"/>
<path opacity="0.7" d="M1366.56 552.666C1366.56 554.139 1365.83 554.876 1364.35 554.876C1362.88 554.876 1362.14 554.139 1362.14 552.666C1362.14 551.192 1362.88 550.455 1364.35 550.455C1365.83 550.455 1366.56 551.192 1366.56 552.666Z" fill="white"/>
<path opacity="0.7" d="M483.605 374.427C483.605 376.637 481.392 378.848 479.179 378.848C476.966 378.848 474.753 376.637 474.753 374.427C474.753 372.216 476.966 370.006 479.179 370.006C482.13 370.743 483.605 372.216 483.605 374.427Z" fill="white"/>
</svg>


